<svg width="200" height="50" viewBox="0 0 200 50" fill="none" xmlns="http://www.w3.org/2000/svg">
<path d="M15.2656 38.5469C12.5573 38.5469 10.375 37.9115 8.71875 36.6406C7.0625 35.3698 6.05729 33.4427 5.70312 30.8594L10.6562 29.875C10.8646 31.4271 11.375 32.599 12.1875 33.3906C13.0104 34.1823 14.0365 34.5781 15.2656 34.5781C16.3281 34.5781 17.1458 34.3281 17.7188 33.8281C18.3021 33.3177 18.5938 32.6198 18.5938 31.7344C18.5938 30.974 18.3802 30.3542 17.9531 29.875C17.526 29.3958 16.8021 29 15.7812 28.6875L12.1719 27.5625C10.5885 27.0938 9.33333 26.3177 8.40625 25.2344C7.47917 24.151 7.01562 22.8802 7.01562 21.4219C7.01562 19.474 7.73438 17.901 9.17188 16.7031C10.6094 15.4948 12.5365 14.8906 14.9531 14.8906C17.2865 14.8906 19.1927 15.4219 20.6719 16.4844C22.151 17.5469 23.0521 19.0208 23.375 20.9062L18.5938 21.6406C18.1146 19.6823 16.9115 18.7031 14.9844 18.7031C14.151 18.7031 13.4792 18.9115 12.9688 19.3281C12.4583 19.7448 12.2031 20.3073 12.2031 21.0156C12.2031 22.1615 12.9792 22.9896 14.5312 23.5L18.5625 24.75C22.0417 25.8646 23.7812 28.0417 23.7812 31.2812C23.7812 33.4896 23.026 35.2552 21.5156 36.5781C20.0156 37.8906 17.9323 38.5469 15.2656 38.5469ZM26.1562 38V21.2969H30.8906V38H26.1562ZM26.5625 18.8438C26.0417 18.3125 25.7812 17.6667 25.7812 16.9062C25.7812 16.1458 26.0417 15.5052 26.5625 14.9844C27.0833 14.4531 27.7396 14.1875 28.5312 14.1875C29.3229 14.1875 29.9844 14.4531 30.5156 14.9844C31.0469 15.5052 31.3125 16.1458 31.3125 16.9062C31.3125 17.6667 31.0469 18.3125 30.5156 18.8438C29.9844 19.3646 29.3229 19.625 28.5312 19.625C27.7396 19.625 27.0833 19.3646 26.5625 18.8438ZM42.0312 34.4219C43.1979 34.4219 44.1354 34.0052 44.8438 33.1719C45.5521 32.3385 45.9062 31.1615 45.9062 29.6406C45.9062 28.1198 45.5521 26.9427 44.8438 26.1094C44.1354 25.2656 43.1979 24.8438 42.0312 24.8438C40.875 24.8438 39.9479 25.2656 39.25 26.1094C38.5521 26.9427 38.2031 28.1198 38.2031 29.6406C38.2031 31.1615 38.5521 32.3385 39.25 33.1719C39.9479 34.0052 40.875 34.4219 42.0312 34.4219ZM33.3281 29.6875C33.3281 27.0417 34.0156 24.9167 35.3906 23.3125C36.776 21.7083 38.5521 20.9062 40.7188 20.9062C41.75 20.9062 42.6927 21.0938 43.5469 21.4688C44.4115 21.8333 45.1146 22.3854 45.6562 23.125V15.4375H50.3906V38H45.9062V35.9219C45.3958 36.7448 44.6823 37.3646 43.7656 37.7812C42.849 38.1875 41.8333 38.3906 40.7188 38.3906C38.5938 38.3906 36.8281 37.5938 35.4219 36C34.026 34.3958 33.3281 32.2917 33.3281 29.6875ZM61.4062 38.3906C58.7917 38.3906 56.7083 37.5833 55.1562 35.9688C53.6042 34.3438 52.8281 32.1823 52.8281 29.4844C52.8281 26.9635 53.6146 24.9062 55.1875 23.3125C56.7604 21.7083 58.7812 20.9062 61.25 20.9062C63.6562 20.9062 65.5833 21.6406 67.0312 23.1094C68.4896 24.5677 69.2188 26.5208 69.2188 28.9688C69.2188 29.8021 69.1771 30.4219 69.0938 30.8281H57.4375C57.5208 32.026 57.9062 32.9635 58.5938 33.6406C59.2812 34.3073 60.25 34.6406 61.5 34.6406C63.2708 34.6406 64.5312 33.9062 65.2812 32.4375L68.8906 34.1875C68.2448 35.5312 67.2604 36.5677 65.9375 37.2969C64.6146 38.026 63.1042 38.3906 61.4062 38.3906ZM57.4688 27.7969H64.6406C64.5677 26.6927 64.224 25.8542 63.6094 25.2812C62.9948 24.6979 62.1562 24.4062 61.0938 24.4062C60.0729 24.4062 59.2396 24.6979 58.5938 25.2812C57.9479 25.8542 57.5729 26.6927 57.4688 27.7969ZM71.3281 31.5V27.2812H79.1406V31.5H71.3281ZM81.9531 38V15.4375H90.9375C93.2812 15.4375 95.0521 15.9062 96.25 16.8438C97.4479 17.7812 98.0469 19.1146 98.0469 20.8438C98.0469 21.875 97.7396 22.7865 97.125 23.5781C96.5208 24.3698 95.6458 24.9115 94.5 25.2031C96.125 25.401 97.4219 26.0365 98.3906 27.1094C99.3594 28.1719 99.8438 29.5312 99.8438 31.1875C99.8438 33.3125 99.0938 34.9792 97.5938 36.1875C96.0938 37.3958 93.974 38 91.2344 38H81.9531ZM86.9375 34.125H90.9688C92.1667 34.125 93.0885 33.8542 93.7344 33.3125C94.3906 32.7604 94.7188 31.9635 94.7188 30.9219C94.7188 29.8698 94.3854 29.0781 93.7188 28.5469C93.0625 28.0052 92.1042 27.7344 90.8438 27.7344H86.9375V34.125ZM86.9375 24.1719H90.2344C91.1406 24.1719 91.8542 23.9375 92.375 23.4688C92.8958 23 93.1562 22.3906 93.1562 21.6406C93.1562 20.8594 92.8958 20.2396 92.375 19.7812C91.8646 19.3229 91.151 19.0938 90.2344 19.0938H86.9375V24.1719ZM105.812 44.4062L107.922 37.8125H106.141L100.531 21.2969H105.375L109.328 33.875L113.172 21.2969H118L110.641 44.4062H105.812ZM118.484 31.5V27.2812H126.297V31.5H118.484ZM137.328 38.5469C134.62 38.5469 132.438 37.9115 130.781 36.6406C129.125 35.3698 128.12 33.4427 127.766 30.8594L132.719 29.875C132.927 31.4271 133.438 32.599 134.25 33.3906C135.073 34.1823 136.099 34.5781 137.328 34.5781C138.391 34.5781 139.208 34.3281 139.781 33.8281C140.365 33.3177 140.656 32.6198 140.656 31.7344C140.656 30.974 140.443 30.3542 140.016 29.875C139.589 29.3958 138.865 29 137.844 28.6875L134.234 27.5625C132.651 27.0938 131.396 26.3177 130.469 25.2344C129.542 24.151 129.078 22.8802 129.078 21.4219C129.078 19.474 129.797 17.901 131.234 16.7031C132.672 15.4948 134.599 14.8906 137.016 14.8906C139.349 14.8906 141.255 15.4219 142.734 16.4844C144.214 17.5469 145.115 19.0208 145.438 20.9062L140.656 21.6406C140.177 19.6823 138.974 18.7031 137.047 18.7031C136.214 18.7031 135.542 18.9115 135.031 19.3281C134.521 19.7448 134.266 20.3073 134.266 21.0156C134.266 22.1615 135.042 22.9896 136.594 23.5L140.625 24.75C144.104 25.8646 145.844 28.0417 145.844 31.2812C145.844 33.4896 145.089 35.2552 143.578 36.5781C142.078 37.8906 139.995 38.5469 137.328 38.5469ZM148.219 38V21.2969H152.953V38H148.219ZM148.625 18.8438C148.104 18.3125 147.844 17.6667 147.844 16.9062C147.844 16.1458 148.104 15.5052 148.625 14.9844C149.146 14.4531 149.802 14.1875 150.594 14.1875C151.385 14.1875 152.047 14.4531 152.578 14.9844C153.109 15.5052 153.375 16.1458 153.375 16.9062C153.375 17.6667 153.109 18.3125 152.578 18.8438C152.047 19.3646 151.385 19.625 150.594 19.625C149.802 19.625 149.146 19.3646 148.625 18.8438ZM164.094 34.4219C165.26 34.4219 166.198 34.0052 166.906 33.1719C167.615 32.3385 167.969 31.1615 167.969 29.6406C167.969 28.1198 167.615 26.9427 166.906 26.1094C166.198 25.2656 165.26 24.8438 164.094 24.8438C162.938 24.8438 162.01 25.2656 161.312 26.1094C160.615 26.9427 160.266 28.1198 160.266 29.6406C160.266 31.1615 160.615 32.3385 161.312 33.1719C162.01 34.0052 162.938 34.4219 164.094 34.4219ZM155.391 29.6875C155.391 27.0417 156.078 24.9167 157.453 23.3125C158.839 21.7083 160.615 20.9062 162.781 20.9062C163.812 20.9062 164.755 21.0938 165.609 21.4688C166.474 21.8333 167.177 22.3854 167.719 23.125V15.4375H172.453V38H167.969V35.9219C167.458 36.7448 166.745 37.3646 165.828 37.7812C164.911 38.1875 163.896 38.3906 162.781 38.3906C160.656 38.3906 158.891 37.5938 157.484 36C156.089 34.3958 155.391 32.2917 155.391 29.6875ZM183.469 38.3906C180.854 38.3906 178.771 37.5833 177.219 35.9688C175.667 34.3438 174.891 32.1823 174.891 29.4844C174.891 26.9635 175.677 24.9062 177.25 23.3125C178.823 21.7083 180.844 20.9062 183.312 20.9062C185.719 20.9062 187.646 21.6406 189.094 23.1094C190.552 24.5677 191.281 26.5208 191.281 28.9688C191.281 29.8021 191.24 30.4219 191.156 30.8281H179.5C179.583 32.026 179.969 32.9635 180.656 33.6406C181.344 34.3073 182.312 34.6406 183.562 34.6406C185.333 34.6406 186.594 33.9062 187.344 32.4375L190.953 34.1875C190.307 35.5312 189.323 36.5677 188 37.2969C186.677 38.026 185.167 38.3906 183.469 38.3906ZM179.531 27.7969H186.703C186.63 26.6927 186.286 25.8542 185.672 25.2812C185.057 24.6979 184.219 24.4062 183.156 24.4062C182.135 24.4062 181.302 24.6979 180.656 25.2812C180.01 25.8542 179.635 26.6927 179.531 27.7969Z" fill="white"/>
</svg>
